<?xml version="1.0" standalone="no"?>
<!DOCTYPE svg PUBLIC "-//W3C//DTD SVG 20010904//EN"
 "http://www.w3.org/TR/2001/REC-SVG-20010904/DTD/svg10.dtd">
<svg version="1.0" xmlns="http://www.w3.org/2000/svg"
 width="500.000000pt" height="500.000000pt" viewBox="0 0 500.000000 500.000000"
 preserveAspectRatio="xMidYMid meet">

<g transform="translate(0.000000,500.000000) scale(0.100000,-0.100000)"
fill="#000000" stroke="none">
<path d="M0 2500 l0 -2500 2500 0 2500 0 0 2500 0 2500 -2500 0 -2500 0 0
-2500z m2762 1380 c182 -38 371 -116 548 -225 158 -98 327 -281 427 -462 l35
-63 479 0 479 0 0 -620 0 -620 -484 0 c-423 0 -485 -2 -490 -15 -8 -22 -111
-174 -141 -210 -14 -16 -4 4 23 45 27 41 61 99 76 128 l26 52 -305 0 c-264 0
-305 2 -305 15 0 8 3 15 8 15 4 1 144 2 312 3 l305 2 23 48 c12 26 33 83 45
127 17 61 26 80 40 80 22 0 17 -25 -30 -140 -19 -47 -37 -93 -40 -102 -5 -17
21 -18 446 -17 l451 0 -2 585 -3 584 -445 0 c-245 0 -444 -3 -443 -7 2 -5 21
-61 44 -126 22 -65 39 -120 37 -122 -2 -2 -14 -2 -25 1 -14 4 -24 17 -29 38
l-7 31 -9 -32 c-12 -44 -25 -41 -45 10 -18 46 -90 187 -102 200 -8 8 -2387 11
-2400 2 -11 -6 -81 -180 -81 -199 0 -7 -11 -21 -25 -30 l-25 -16 25 66 c14 37
39 93 55 125 16 33 29 59 27 60 -67 22 -83 1 -139 -176 -14 -44 -23 -62 -25
-49 -2 11 12 65 31 119 20 54 34 100 33 102 -2 1 -184 4 -405 5 l-402 3 0
-581 c0 -494 2 -583 14 -587 23 -9 790 -7 803 1 10 6 3 40 -27 137 -22 72 -40
137 -40 146 0 9 11 21 25 27 34 16 35 15 35 -6 0 -39 41 -180 71 -239 25 -53
35 -63 62 -68 18 -3 157 -5 310 -3 257 3 277 2 277 -14 0 -16 -23 -18 -296
-20 l-296 -3 50 -65 c116 -154 221 -248 397 -356 210 -128 389 -210 524 -237
40 -9 75 -18 77 -20 9 -9 -28 -37 -49 -37 -11 0 -59 12 -106 26 -225 68 -525
254 -745 463 -77 72 -73 64 21 -49 115 -139 237 -230 435 -324 232 -111 366
-146 560 -146 214 0 507 51 658 114 43 19 124 63 179 100 56 36 101 64 101 62
0 -7 -146 -113 -205 -148 -89 -54 -158 -82 -275 -111 -232 -59 -516 -81 -676
-53 -182 31 -415 125 -562 225 -202 137 -336 290 -446 509 l-26 52 -445 0
-445 0 0 620 0 620 439 0 439 0 11 28 c6 15 21 38 32 52 16 20 15 15 -6 -27
l-25 -53 39 0 c39 0 41 2 101 89 34 49 68 95 76 102 9 7 -12 -28 -45 -78 -34
-50 -61 -96 -61 -102 0 -8 329 -11 1170 -11 1128 0 1170 1 1161 18 -17 32 -84
118 -132 168 -207 222 -502 378 -841 446 -150 30 -409 32 -538 4 -152 -33
-302 -96 -422 -178 -80 -54 -73 -40 11 21 102 73 222 135 341 175 147 49 240
60 444 53 146 -4 189 -10 293 -36 249 -62 456 -161 638 -305 l60 -47 -64 60
c-85 81 -210 162 -356 231 -227 108 -346 135 -595 134 -197 0 -301 -15 -451
-65 -119 -39 -272 -112 -372 -178 -43 -29 -76 -48 -73 -43 11 18 173 121 255
162 150 75 318 126 491 150 104 14 341 4 452 -20z m-1212 -303 c0 -2 -10 -12
-22 -23 l-23 -19 19 23 c18 21 26 27 26 19z m-296 -312 c-9 -14 -18 -25 -21
-25 -5 0 5 18 20 38 17 22 18 13 1 -13z m137 -615 c3 -96 6 -176 7 -177 1 -2
10 -3 21 -3 27 0 31 25 31 198 l0 152 121 0 121 0 -4 -227 c-4 -255 -7 -268
-75 -320 -36 -28 -37 -28 -187 -28 -140 0 -154 2 -188 23 -47 30 -51 42 -27
88 16 33 19 60 19 186 0 155 -7 191 -50 245 -11 14 -17 29 -14 35 3 5 54 7
112 6 l107 -3 6 -175z m1189 81 l0 -88 -132 4 c-134 4 -166 -2 -155 -30 4 -10
29 -16 91 -19 103 -7 149 -31 177 -92 25 -56 25 -151 -1 -193 -37 -61 -63 -68
-282 -71 l-198 -4 0 86 0 86 113 0 c79 0 119 4 132 13 33 25 8 37 -76 37 -86
0 -126 14 -153 52 -26 36 -20 46 26 44 69 -3 78 13 78 149 l0 115 183 2 c100
2 185 2 190 0 4 -2 7 -43 7 -91z m-1482 75 c80 -42 102 -99 102 -263 0 -142
-14 -190 -67 -239 -56 -52 -94 -64 -200 -64 -147 1 -213 40 -242 145 -14 52
-14 239 0 305 11 51 51 103 93 120 37 15 284 12 314 -4z m1062 -100 l0 -115
-52 -3 -53 -3 -7 -45 c-3 -25 -7 -102 -7 -172 l-1 -128 -135 0 -135 0 0 165 0
165 -25 12 c-25 11 -25 13 -25 125 l0 113 220 0 220 0 0 -114z m981 68 c88
-44 121 -119 123 -274 1 -91 -2 -111 -23 -153 -44 -90 -132 -127 -301 -127
l-107 0 -7 31 c-7 34 -9 543 -2 550 2 2 64 3 137 1 116 -3 139 -7 180 -28z
m750 1 c45 -43 59 -83 59 -171 0 -61 -5 -88 -26 -134 l-26 -58 26 -81 c14 -45
26 -89 26 -97 0 -11 -20 -14 -108 -14 l-109 0 -13 43 c-16 55 -38 97 -50 97
-6 0 -10 -31 -10 -70 l0 -70 -39 0 -39 0 -7 57 c-4 32 -7 111 -6 177 1 70 -3
124 -10 132 -7 8 -7 14 1 19 6 3 10 45 10 99 0 51 3 96 7 100 4 4 69 6 145 4
136 -3 137 -3 169 -33z m475 25 c12 0 14 -16 12 -87 l-3 -88 -130 3 c-131 3
-163 -4 -152 -31 4 -10 28 -16 86 -20 127 -8 183 -55 196 -162 9 -65 -5 -112
-44 -149 -38 -36 -82 -45 -223 -46 l-117 0 -11 43 c-6 23 -17 61 -25 84 l-13
41 88 4 c93 3 106 8 97 33 -5 12 -24 15 -88 15 -80 0 -81 0 -75 23 31 107 29
196 -4 274 -17 38 -17 42 -2 50 16 7 353 22 380 16 8 -2 20 -3 28 -3z m-1586
-162 c0 -90 3 -220 7 -290 l6 -128 -139 0 -139 1 28 20 c91 69 99 234 15 325
l-41 44 41 0 c49 0 67 24 59 75 -3 18 -3 51 0 74 l6 41 78 0 79 0 0 -162z
m760 77 l0 -85 -94 0 c-51 0 -107 -3 -123 -6 -28 -5 -31 -3 -48 42 -10 26 -36
67 -58 91 l-40 43 182 0 181 0 0 -85z m0 -215 l0 -60 -120 0 -120 0 0 60 0 60
120 0 120 0 0 -60z m0 -200 l0 -80 -185 0 -185 0 44 40 c23 22 51 58 61 80
l18 40 124 0 123 0 0 -80z"/>
<path d="M910 2631 c-11 -22 -12 -142 -1 -181 10 -35 39 -38 51 -5 13 34 13
161 0 186 -6 10 -17 19 -25 19 -8 0 -19 -9 -25 -19z"/>
<path d="M2980 2510 c0 -74 3 -90 15 -90 20 0 35 40 35 90 0 50 -15 90 -35 90
-12 0 -15 -16 -15 -90z"/>
<path d="M3660 2590 c0 -53 3 -70 14 -70 18 0 26 22 26 70 0 48 -8 70 -26 70
-11 0 -14 -17 -14 -70z"/>
</g>
</svg>
